<?xml version="1.0" encoding="utf-8"?>
<!-- Generator: Adobe Illustrator 23.1.0, SVG Export Plug-In . SVG Version: 6.00 Build 0)  -->
<svg version="1.1" id="Capa_1" xmlns="http://www.w3.org/2000/svg" xmlns:xlink="http://www.w3.org/1999/xlink" x="0px" y="0px"
	 viewBox="0 0 1200 1200" enable-background="new 0 0 1200 1200" xml:space="preserve">
<g>
	<path fill="#303391" d="M762.357,227.436l1.028-68.173c0,0,0.685-24.666,0.685-33.573c0-8.907,1.37-28.777,1.37-28.777
		s2.741-34.943,2.741-43.85h-18.499l-2.741,26.721l-4.378-0.039l-1.574-25.997c-0.118-1.987-1.705-3.618-3.741-3.741
		c-2.199-0.133-4.09,1.542-4.224,3.741l-1.568,25.896l-7.807-0.07l-1.564-25.826c-0.118-1.987-1.705-3.618-3.741-3.741
		c-2.199-0.133-4.09,1.542-4.224,3.741l-1.558,25.726l-7.827-0.071l-1.554-25.656c-0.118-1.987-1.705-3.618-3.741-3.741
		c-2.199-0.133-4.09,1.542-4.224,3.741l-1.548,25.556l-7.848-0.071l-1.544-25.485c-0.118-1.987-1.705-3.618-3.741-3.741
		c-2.199-0.133-4.091,1.542-4.224,3.741l-1.537,25.386l-7.869-0.071l-1.533-25.315c-0.118-1.987-1.705-3.618-3.741-3.741
		c-2.2-0.133-4.091,1.542-4.224,3.741l-1.527,25.216l-7.889-0.071l-1.523-25.145c-0.118-1.987-1.705-3.618-3.741-3.741
		c-2.2-0.133-4.091,1.542-4.224,3.741l-1.517,25.045l-7.91-0.071l-1.513-24.974c-0.118-1.987-1.705-3.618-3.741-3.741
		c-2.199-0.133-4.091,1.542-4.224,3.741l-1.507,24.875l-7.93-0.071l-1.502-24.804c-0.118-1.987-1.705-3.618-3.741-3.741
		c-2.199-0.133-4.091,1.542-4.224,3.741l-1.496,24.705l-7.951-0.072l-1.492-24.633c-0.118-1.987-1.705-3.618-3.741-3.741
		c-2.199-0.133-4.09,1.542-4.224,3.741l-1.486,24.535l-7.972-0.072l-1.482-24.463c-0.118-1.987-1.705-3.618-3.741-3.741
		c-2.199-0.133-4.09,1.542-4.224,3.741l-1.476,24.364l-7.992-0.072l-1.471-24.293c-0.118-1.987-1.705-3.618-3.741-3.741
		c-2.199-0.133-4.09,1.542-4.224,3.741l-1.465,24.194l-8.013-0.072l-1.461-24.122c-0.118-1.987-1.705-3.618-3.741-3.741
		c-2.199-0.133-4.09,1.542-4.224,3.741l-1.455,24.024l-4.84-0.044l-2.056-26.036l-17.814,0.685c0,0-0.685,34.943-0.685,43.165
		c0,8.222,3.426,57.553,3.426,57.553v60.294h-15.073c0,0-1.37,21.24-2.056,26.721c-0.685,5.481,2.056,21.24,2.056,21.24
		s-28.777,23.295-36.313,40.424c-7.537,17.129-2.055,30.147-7.537,48.646c-1.115,3.764-2.344,7.469-3.594,11.154
		c14.097,6.585,22.747,19.266,19.01,42.631c-2.182-13.547-9.342-26.648-22.081-33.57c-3.78,11.359-7.038,22.778-7.038,35.283
		c0,13.423,0,25.884,0,32.573c8.647-2.169,17.047-6.116,25.008-12.703c-5,10.278-12.675,17.094-21.735,21.088l4.948,4.948
		l31.517,0.685c0,0,0-31.517,0-47.961s-2.055-56.183-1.37-67.831c0.685-11.648,6.166-21.24,11.648-29.462
		c5.481-8.222,11.648-15.759,16.444-15.759c0,0,2.056,189.788,2.056,200.751c0,10.962,10.962,43.85,10.962,43.85l1.37,54.813
		c0,0-24.666-2.741-36.998-2.741s-12.333,19.184-5.481,24.666c6.852,5.481,13.703,4.111,13.703,4.111s23.295,12.333,27.406,19.184
		c0,0,10.963,363.133,10.963,372.725c0,9.592,15.073,32.888,26.036,36.999c0,0,1.37,38.369,4.111,52.072
		c2.741,13.703,23.295,52.072,69.886,52.072c38.369,0,58.581-26.379,68.858-43.85c10.277-17.472,3.083-18.499,10.277-25.694
		c7.194-7.194,7.194-35.971,7.194-35.971s17.471-12.333,23.638-23.638c6.167-11.305,5.139-44.192,3.083-63.72
		c-2.055-19.527-3.083-279.544-1.028-291.877c2.055-12.333,4.111-24.666,13.36-33.915c9.25-9.25,12.333-9.25,14.388-35.971
		s10.277-114.079,10.277-204.519S775.718,252.102,762.357,227.436z M550.643,424.761c-8.18-45.988-9.465-94.764-3.083-142.855
		C555.685,327.898,557.081,376.672,550.643,424.761z M694.382,279.61c-13.817-18.572-30.524-35.286-55.353-42.924
		C664.013,228.246,694.61,252.357,694.382,279.61z M593.808,1056.819c10.277,0,20.555,0.514,26.207,0.514
		c21.069,0,30.832-0.514,35.457,2.569c4.625,3.083,7.194,6.166,7.194,19.527c0,13.36-9.764,38.026-42.137,38.026
		s-40.596-25.18-40.596-38.026S583.531,1056.819,593.808,1056.819z M573.254,1110.261c30.115,22.521,59.332,23.482,91.468,5.138
		C644.695,1147.877,590.896,1146.261,573.254,1110.261z M696.582,974.6c-26.721,6.68-60.636,1.542-109.454-2.569
		c32.872-5.975,66.909-2.222,100.358-7.851c18.379-45.876,5.471-106.096,15.776-155.559
		C707.475,913.935,705.832,958.156,696.582,974.6z M711.998,685.806c-4.887-91.268-2.496-184.822,7.194-276.461
		C724.138,500.613,721.63,594.164,711.998,685.806z"/>
	<path fill="#9FD3FF" d="M762.357,227.436l0.031-2.067c-15.347-36.616-51.697-78.439-130.554-78.439
		c-113.736,0-134.976,97.978-135.661,115.792c-0.523,13.592-0.253,21.994-1.615,28.868c0.315-0.059,0.625-0.091,0.93-0.091
		c0,0,2.056,189.788,2.056,200.751c0,10.962,10.962,43.85,10.962,43.85l1.37,54.813l-1.37,45.22c0,0,10.963,363.133,10.963,372.725
		c0,9.592,15.073,32.888,26.036,36.999c0,0,0.003,0.069,0.006,0.171c32.073,0,138.592,0,148.501,0c4.009,0,7.877-0.286,11.814-0.907
		c0.005-0.404,0.005-0.635,0.005-0.635s17.471-12.333,23.638-23.638c6.167-11.305,5.139-44.192,3.083-63.72
		c-2.055-19.527-3.083-279.544-1.028-291.877c2.055-12.333,4.111-24.666,13.36-33.915c9.25-9.25,12.333-9.25,14.388-35.971
		s10.277-114.079,10.277-204.519S775.718,252.102,762.357,227.436z M694.382,279.61c-13.817-18.572-30.524-35.286-55.353-42.924
		C664.013,228.246,694.61,252.357,694.382,279.61z M547.56,281.906c8.125,45.992,9.521,94.766,3.083,142.855
		C542.463,378.773,541.178,329.997,547.56,281.906z M557.838,1023.931c-8.798,0-15.93-7.132-15.93-15.93
		c0-8.798,7.132-15.93,15.93-15.93c8.798,0,15.93,7.132,15.93,15.93C573.768,1016.799,566.635,1023.931,557.838,1023.931z
		 M635.432,249.019c30.934,0,56.011,34.28,56.011,76.566s-25.077,76.566-56.011,76.566s-56.012-34.28-56.012-76.566
		S604.497,249.019,635.432,249.019z M627.981,1019.82c-9.507,0-17.215-6.672-17.215-14.903c0-8.23,7.707-14.902,17.215-14.902
		s17.215,6.672,17.215,14.902C645.195,1013.148,637.488,1019.82,627.981,1019.82z M587.128,972.03
		c32.872-5.975,66.909-2.222,100.358-7.851c18.379-45.876,5.471-106.096,15.776-155.559c4.213,105.314,2.569,149.536-6.68,165.979
		C669.861,981.28,635.946,976.141,587.128,972.03z M698.124,1020.334c-8.798,0-15.93-7.132-15.93-15.93s7.132-15.93,15.93-15.93
		c8.798,0,15.93,7.132,15.93,15.93S706.921,1020.334,698.124,1020.334z M711.998,685.806c-4.887-91.268-2.496-184.822,7.194-276.461
		C724.138,500.613,721.63,594.164,711.998,685.806z"/>
	<path fill="#E0614F" d="M762.357,227.436l0.031-2.067c-8.955-21.365-25.083-44.49-52.611-60.057
		c-0.767,21.973-3.945,116.562-3.945,176.203c0,67.831-3.083,124.356-73.997,124.356s-64.747-86.33-65.775-121.273
		c-0.936-31.835-6.99-144.69-9.614-178.509c-48.628,29.454-59.779,83.809-60.272,96.632c-0.523,13.592-0.253,21.994-1.615,28.868
		c0.315-0.059,0.625-0.091,0.93-0.091c0,0,2.056,189.788,2.056,200.751c0,10.962,10.962,43.85,10.962,43.85l1.37,54.813l-1.37,45.22
		c0,0,10.963,363.133,10.963,372.725c0,9.592,15.073,32.888,26.036,36.999c0,0,0.003,0.069,0.006,0.171
		c32.073,0,138.592,0,148.501,0c4.009,0,7.877-0.286,11.814-0.907c0.005-0.404,0.005-0.635,0.005-0.635s17.471-12.333,23.638-23.638
		c6.167-11.305,5.139-44.192,3.083-63.72c-2.055-19.527-3.083-279.544-1.028-291.877c2.055-12.333,4.111-24.666,13.36-33.915
		c9.25-9.25,12.333-9.25,14.388-35.971s10.277-114.079,10.277-204.519S775.718,252.102,762.357,227.436z M547.56,281.906
		c8.125,45.992,9.521,94.766,3.083,142.855C542.463,378.773,541.178,329.997,547.56,281.906z M557.838,1023.931
		c-8.798,0-15.93-7.132-15.93-15.93c0-8.798,7.132-15.93,15.93-15.93c8.798,0,15.93,7.132,15.93,15.93
		C573.768,1016.799,566.635,1023.931,557.838,1023.931z M627.981,1019.82c-9.507,0-17.215-6.672-17.215-14.903
		c0-8.23,7.707-14.902,17.215-14.902s17.215,6.672,17.215,14.902C645.195,1013.148,637.488,1019.82,627.981,1019.82z
		 M587.128,972.03c32.872-5.975,66.909-2.222,100.358-7.851c18.379-45.876,5.471-106.096,15.776-155.559
		c4.213,105.314,2.569,149.536-6.68,165.979C669.861,981.28,635.946,976.141,587.128,972.03z M698.124,1020.334
		c-8.798,0-15.93-7.132-15.93-15.93s7.132-15.93,15.93-15.93c8.798,0,15.93,7.132,15.93,15.93S706.921,1020.334,698.124,1020.334z
		 M711.998,685.806c-4.887-91.268-2.496-184.822,7.194-276.461C724.138,500.613,721.63,594.164,711.998,685.806z"/>
</g>
</svg>
